<?xml version="1.0" encoding="utf-8"?>
<!-- Generator: Adobe Illustrator 15.0.0, SVG Export Plug-In . SVG Version: 6.00 Build 0)  -->
<!DOCTYPE svg PUBLIC "-//W3C//DTD SVG 1.1//EN" "http://www.w3.org/Graphics/SVG/1.1/DTD/svg11.dtd">
<svg version="1.1" xmlns="http://www.w3.org/2000/svg" xmlns:xlink="http://www.w3.org/1999/xlink" x="0px" y="0px"
	 width="175.68px" height="175.68px" viewBox="0 0 175.68 175.68" enable-background="new 0 0 175.68 175.68" xml:space="preserve">
<g id="Github">
	<circle id="github-back" fill="#262626" cx="87.84" cy="87.84" r="87.84"/>
</g>
<g id="Text_Font" display="none">
	
		<text transform="matrix(1 0 0 1 16.6333 112.3616)" display="inline" fill="#FFFFFF" font-family="'MyriadPro-Bold'" font-size="72">Wiki</text>
</g>
<g id="Text_Outline">
	<g>
		<path fill="#FFFFFF" d="M29.846,112.362L18.325,63.829h11.737l3.672,19.946c1.08,5.833,2.088,12.097,2.88,16.994h0.144
			c0.792-5.257,1.944-11.089,3.168-17.138l4.104-19.802h11.665l3.889,20.45c1.08,5.688,1.872,10.874,2.592,16.274h0.144
			c0.72-5.4,1.8-11.09,2.809-16.922l3.96-19.802H80.25l-12.529,48.532H55.84L51.736,91.48c-0.937-4.896-1.729-9.433-2.304-14.977
			h-0.144c-0.864,5.472-1.656,10.081-2.809,14.977l-4.608,20.882H29.846z"/>
		<path fill="#FFFFFF" d="M94.934,67.358c0,3.024-2.232,5.473-5.904,5.473c-3.456,0-5.688-2.448-5.688-5.473
			c0-3.096,2.304-5.473,5.833-5.473C92.701,61.885,94.861,64.261,94.934,67.358z M83.629,112.362V77.151h10.945v35.211H83.629z"/>
		<path fill="#FFFFFF" d="M114.301,91.984h0.145c0.791-1.512,1.656-2.952,2.52-4.248l7.129-10.585h13.178L124.67,91.408l14.4,20.953
			h-13.465l-8.568-14.473l-2.736,3.455v11.018h-10.945V61.237h10.945V91.984z"/>
		<path fill="#FFFFFF" d="M154.404,67.358c0,3.024-2.232,5.473-5.904,5.473c-3.457,0-5.689-2.448-5.689-5.473
			c0-3.096,2.305-5.473,5.832-5.473C152.172,61.885,154.332,64.261,154.404,67.358z M143.1,112.362V77.151h10.943v35.211H143.1z"/>
	</g>
</g>
</svg>
