<?xml version="1.0" encoding="utf-8"?>
<!-- Generator: Adobe Illustrator 15.0.0, SVG Export Plug-In . SVG Version: 6.00 Build 0)  -->
<!DOCTYPE svg PUBLIC "-//W3C//DTD SVG 1.1//EN" "http://www.w3.org/Graphics/SVG/1.1/DTD/svg11.dtd">
<svg version="1.1" id="Layer_1" xmlns="http://www.w3.org/2000/svg" xmlns:xlink="http://www.w3.org/1999/xlink" x="0px" y="0px"
	 width="175px" height="175px" viewBox="-149.5 1050.5 175 175" enable-background="new -149.5 1050.5 175 175"
	 xml:space="preserve">
<g id="Background" display="none">
	<rect x="-149.5" y="1050.5" display="inline" fill="#FF6600" width="300" height="300"/>
</g>
<g id="Background_Round">
	<path fill="#FF6600" d="M25.5,1138c0,48.325-39.175,87.5-87.5,87.5c-48.324,0-87.5-39.175-87.5-87.5
		c0-48.326,39.176-87.5,87.5-87.5C-13.675,1050.5,25.5,1089.675,25.5,1138z"/>
</g>
<g id="Background_Round_copy">
</g>
<g id="Body" display="none">
	<g display="inline" opacity="0.3">
		<path fill="#F0D0B4" d="M347.146,1915.493c10.2-15.006,59.814-61.884,109.748-106.151c63.795-60.296,98.742-86.394,102.229-87.7
			c-7.764-32.142-23.947-111.062-21.431-124.286c25.726,2.672,24.976-30.227,26.574-39.432c6.136-37.638,14.323-73.427,1.879-99.873
			c-10.504-14.391-32.736-13.269-32.736-13.269l-52.286-114.855L349.121,1215.07l-141.428-25.713l-120.536,138.32
			c0,0-13.822,86.464-7.072,116.355c8.356,30.857-0.858,47.517,5.128,72.498c-0.428,39.431-2.461,54.009,11.988,103.61
			c20.059,45.18,15.04,33.357,40.544,76.86c10.836,18.482,33.058,57.586,33.058,57.586s27.654,37.448,37.878,48.633
			c12.569,10.742,14.319,10.742,27.21,10.742c11.222,21.45,44.544,77.185,53.233,92.822c5.52,22.664,12.006,33.791,19.468,43.714
			h19.421C331.358,1934.671,340.241,1923.992,347.146,1915.493z"/>
	</g>
	<path display="inline" opacity="0.3" fill="#DFB28B" enable-background="new    " d="M542.741,1459.212
		c12.812,4.84,21.249,15.237,21.214,29.209c-0.015,7.412,0.352,14.997-0.36,22.311c-0.573,5.845-7.418,13.402-3.359,18.592
		c-2.581-6.155-4.816-14.886-4.768-21.545c0.057-7.122-0.34-14.007-4.358-19.688c-2.291-3.24-1.274-5.092-2.688-8.262
		c-1.14-2.552-4.808-3.771-6.741-5.057c-1.95-1.308-7.427-3.347-7.928-6.117c-0.498-2.742,3.735-5.638,4.327-8.417
		c0.794-0.091,1.969-0.293,2.773-0.082"/>
	<path display="inline" opacity="0.3" fill="#CB8C84" enable-background="new    " d="M241.121,1598.858
		c2.045-14.159,18.738-8.358,29.426-8.358c12.391,0,23.66-1.286,36.006-1.286c3.476,0,17.276-1.863,19.324,0.562
		c4.409,5.209-6.066,11.054-9.029,12.17c-5.479,2.054-12.135,1.225-17.817,2.06c-6.615,0.964-12.889,1.857-20.001,1.922
		c-9.817,0.098-13.635,4.938-21.691,9c-8.171,4.125-15.68,4.365-23.959,7.072c-7.106,2.326-12.753,7.046-18.618,12.354
		c-5.896,5.329-13.815,9.363-19.793,14.581c-0.366-5.687,7.151-10.005,9.527-14.672c2.871-5.625,5.695-11.183,9.144-16.793
		c2.427-3.942,5.821-12.29,8.985-15.243c4.034-3.762,12.929-0.151,19.025-1.039c0.11-1.028,0.696-1.995,0.759-2.975"/>
	<path display="inline" opacity="0.3" fill="#F0BEB4" enable-background="new    " d="M216.049,1652.214
		c12.565,2.508,22.141,0.599,32.625-6.604c4.605-3.164,7.57-5.597,13.034-6.896c4.896-1.169,9.894-2.108,14.704-3.249
		c5.672-1.345,11.156-1.975,16.761-4.289c5.143-2.118,9.19-5.385,14.133-7.777c4.683-2.271,11.49-3.212,15.328-6.65
		c3.697-3.305,4.509-8.852,6.99-12.612c-6.126,0.949-11.048,3.466-17.271,5.31c-6.193,1.843-12.01,1.629-18.647,1.629
		c-11.473,0-26.112-2.719-35.373,4.661c-5.521,4.402-6.012,6.562-13.5,6.907c-6.53,0.309-12.17-1.027-17.514,2.376
		c-5.086,3.24-10.667,9.183-14.49,13.844c-2.631,3.214-8.228,7.834-9.712,11.426c2.728,2.511,7.131,0.577,10.361,3.214"/>
	<path display="inline" fill="#56331D" d="M83.084,1459.839c1.085-2.396,7.121-5.224,9.428-7.166
		c3.088-2.593,5.686-4.67,8.332-7.714c5.052-5.798,11.761-10.087,17.412-15.108c2.801-2.49,4.846-5.634,8.411-7.263
		c3.592-1.632,7.705-1.415,11.631-1.781c7.875-0.735,16.248-1.23,24.46-0.759c5.61,10.852-6.791,12.223-14.886,12.384
		c-9.589,0.19-15.132,3.917-22.767,8.388c-3.762,2.2-7.178,5.162-10.553,7.834c-3.717,2.936-6.688,4.717-10.686,6.917
		c-7.312,4.034-13.148,11.769-22.531,9.759c-0.935-0.202-2.2-0.19-3.174-0.132c-0.984-4.339,5.494-3.855,6.166-6.604"/>
	<path display="inline" fill="#56331D" d="M238.385,1392.564c0.401-2.78,2.808-4.239,3.797-6.568
		c2.651-1.336,4.088-5.253,6.366-7.354c2.481-2.271,5.657-3.771,8.619-5.467c7.494-4.289,14.941-7.175,22.022-12.466
		c6.671-4.98,12.261-9.267,21.022-9.249c10.562,0.021,20.896,0.29,31.21,1.245c6.398,0.592,10.014,4.608,16.793,4.547
		c-5.036,0.835-11.449,0.902-16.421,2.698c-4.055,1.462-7.062,3.797-11.613,3.976c-8.36,0.322-16.21,1.151-23.845,3.636
		c-9.905,3.223-18.624,7.978-27.984,12.237c-8.659,3.94-16.726,5.534-24.976,10.705c-2.089,1.307-4.09,3.094-6.237,1.236"/>
	<path display="inline" opacity="0.3" fill="#CEA28B" enable-background="new    " d="M516.333,1505.888
		c9.615,0.272,23.906-7.862,25.359,7.053c0.627,6.444-1.683,11.291-2.276,17.366c-0.486,4.957,0.012,10.935-6.056,11.896
		c-0.136-3.738,0.176-6.138-1.469-9.082c-1.78-3.193-3.605-2.672-6.146-4.468c-4.787-3.381-5.745-8.631-12.65-8.666
		c-0.091-2.127-0.337-4.714,0.255-6.681c0.593-1.95,2.44-3.129,2.512-6"/>
	<path display="inline" opacity="0.3" fill="#DFB28B" enable-background="new    " d="M244.171,1503.846
		c6.407-4.701,18.17-15.359,26.341-10.594c3.889,2.271,6.463,6.425,10.217,8.839c4.288,2.77,7.793,5.376,11.52,8.685
		c-1.547,1.799-1.787,4.455-1.465,6.979c-5.197-5.988-6.498-14.027-15.006-15.867c-7.529-1.626-21.725-1.216-29.086,0.697"/>
	<path display="inline" opacity="0.3" fill="#9C7761" enable-background="new    " d="M185.439,1529.104
		c0.387,6.349-2.742,13.099-1.264,19.465c1.072,4.61,3.466,5.606,6.524,8.64c4.43,4.389,11.493,10.547,18.765,10.415
		c9.873-0.17,18.161-2.751,25.72-9.316c4.957-4.304,13.229-10.972,15.353-16.969c-5.991,2.941-8.467,6.773-15.7,6.076
		c-7.034-0.674-8.909-4.872-14.845-7.89c-5.73-2.919-11.566-1.872-18.161-2.194c-2.083-0.101-6.709,0.041-8.83-0.633
		c-3.214-1.031-4.529-3.867-7.562-5.062"/>
</g>
<g id="Shirt" display="none">
	<path display="inline" fill="#231F20" d="M635.645,1792.956c-15.418,5.654-34.452,9.521-50.744,11.883
		c-27.593,3.987-52.233,18.281-77.395,28.907c-24.621,10.386-44.118,27.653-70.143,30.205c-9.021,0.882-16.708,1.655-25.623,2.552
		c-8.017,0.803-13.198,3.917-20.433,5.804c-10.355,2.704-10.673,3.697-16.875,12.023c-3.756,5.042-9.718,9.173-13.972,14.095
		c-12.671,14.654-27.428,32.241-32.373,52.075H750.5v-178.409C728.844,1769.727,643.357,1790.123,635.645,1792.956z"/>
	<path display="inline" fill="#231F20" d="M304.745,1931.451c-3.97-7.204-3.366-17.099-8.364-23.906
		c-3.671-5.004-2.786-5.886-9.211-1.89c-1.843,1.146-4.825,4.632-6.595,6.249c-5.382,4.941-10.09,8.656-16.146,12.434
		c-12.457,7.768-25.421,17.423-37.2,26.162h90.387C313.423,1944.116,308.46,1938.201,304.745,1931.451z"/>
	<path display="inline" fill="#5D5E61" d="M556.552,1722.503c4.884,0,11.423-1.125,16.072,0.19
		c7.374,2.089,7.535,6.539,11.981,11.681c2.966,3.425,8.67,5.877,12.023,9.683c2.944,3.347,4.632,8.54,7.646,11.903
		c6.258,7.002,14.394,11.262,20.675,18.12c7.922,8.64,13.374,12.97,24.173,18.062c-6.771,1.939-9.255,1.589-15.604,5.575
		c-5.802,3.646-11.912,6.729-17.865,10.286c-9.744,5.804-20.09,11.379-29.938,18.472c-18.407,13.248-45.267,29.991-45.772,55.324
		c-16.428,0.936-30.038-4.169-46.154-4.157c-11.716,0.01-23.429,0-35.143,0c-14.016,0-28.203-0.674-42.195,0.01
		c-7.837,0.384-16.74-0.281-24.51,0.854c-5.354,0.773-9.514,3.624-15.265,2.25c-0.671-11.924,20.477-25.767,28.778-33.318
		c11.314-10.308,22.913-19.729,34.74-29.644c24.299-20.391,45.992-45.551,71.064-62.467c13.907-9.372,30.053-20.18,42.722-31.107"/>
</g>
<g id="Layer_19">
</g>
<g id="Mouth">
	<path fill="#4A0F00" d="M-82.097,1167.161c0.256-1.104,1.686-1.904,2.455-2.62c0.689-0.64,1.042-1.432,1.749-2.101
		c0.6-0.566,1.513-1.558,2.244-1.934c1.067-0.551,1.832,0.045,2.792,0.125c1.224,0.101,1.341-0.649,2.042-1.527
		c0.75-0.938,1.571-1.114,2.793-1.216c2.22-0.183,4.37-0.361,6.613-0.453c0.83-0.033,2.345-0.091,3.027-0.479
		c0.544-0.31,0.931-2.165,1.588-1.65c0.667,0.521-0.007,2.357-0.409,2.724c-0.633,0.576-1.961,1.064-2.783,1.191
		c-2.148,0.33-4.453-0.329-6.596,0.026c-2.007,0.332-3.269,2.22-5.11,2.725c-0.98,0.27-2.201-0.299-3.171,0.099
		c-0.71,0.29-1.827,1.31-2.375,1.897c-0.715,0.765-1.025,1.656-2.122,2.159c-0.863,0.397-1.767,0.699-2.623,1.147L-82.097,1167.161z
		"/>
</g>
<g id="Nose">
	<path fill="#4A3222" d="M-75.243,1144.667c0.472-0.23,1.023-0.215,1.503-0.578c0.604-0.455,0.682-1.099,1.447-1.398
		c1.015-0.397,3.051-0.381,4.159-0.341c0.419,1.7-0.69,2.694-2.317,3.054c-1.292,0.285-3.607-1.22-4.574,0.021
		c-0.225-0.091-0.168-0.135-0.338-0.273c0.012-0.127,0.092-0.165,0.243-0.116"/>
	<path fill="#4A3222" d="M-82.118,1147.368c1.909-0.92,2.144-0.29,3.455,0.983c-0.857,0.414-1.262-0.303-2.007-0.344
		c-0.714-0.038-1.874,0.859-1.571-0.516"/>
</g>
<g id="Eyes">
	<path fill="#4A0F00" d="M-68.323,1127.552c0.521-0.145,1.499-1.328,1.964-1.609c0.856-0.518,1.199-0.782,1.975-1.356
		c0.475-0.353,2.072-1.08,2.652-1.082c0.661-0.003,0.008,0.607,0.605,0.838c0.702,0.269,1.443,0.24,2.508,0.148
		c0.742-0.064,1.635-0.372,2.175-0.893c0.592-0.57,0.488-1.148,1.292-1.438c1.042-0.373,5.785,0.553,6.011-0.288
		c0.24-0.888-3.868-0.942-4.555-1.083c-1.962-0.4-3.398-0.045-5.353,0.047c-2.1,0.1-4.123,1.435-5.787,2.563
		c-0.7,0.474-1.258,1.177-1.897,1.755c-0.753,0.682-1.145,1.004-1.645,1.796L-68.323,1127.552z"/>
	<path fill="#4A0F00" d="M-97.439,1140.375c0.438-0.156,0.474-1.031,0.628-1.424c0.191-0.483,0.457-0.977,0.73-1.452
		c0.549-0.96,1.121-1.886,1.91-2.676c1.787-1.79,3.62-2.266,6.104-2.389c0.411-0.021,0.912-0.057,1.317,0.003
		c0.574,0.083,0.449,0.307,0.865,0.511c0.021,0.18,0.045,0.383,0.066,0.539c-0.233,0.016-0.656-0.074-0.869,0.013
		c-0.364,0.149-0.313,0.254-0.38,0.687c-0.091,0.592-0.337,0.952-0.7,1.425c-0.766,0.993-1.518,0.951-2.797,0.951
		c-0.723,0-1.038-0.015-1.582-0.421c-0.28-0.208-0.246-0.378-0.666-0.395c-0.399-0.017-0.418,0.053-0.735,0.331
		c-0.861,0.752-1.78,1.462-2.361,2.481c-0.461,0.813-0.67,1.607-1.46,2.127c-0.118-0.172-0.164-0.401-0.134-0.624"/>
</g>
<g id="Tattoo">
	<g>
		<path fill="none" stroke="#485654" stroke-width="0.5" d="M-18.921,1168.294c0.402-0.717,0.417-1.701,0.691-2.522
			c0.297-0.883,0.515-1.603,1.059-2.176c0.269-0.284,0.589-0.816,0.917-0.889c0.107-0.023,0.427-0.045,0.399,0.274
			c-0.008,0.098-0.318,0.298-0.365,0.331c-0.277,0.205-0.534,0.353-0.785,0.654c-0.271,0.323-0.372,0.803-0.557,1.188
			c-0.139,0.287-0.271,0.352-0.25,0.756c0.078,0.021,0.195,0.078,0.264,0.086c0.23-0.32,0.143-0.825,0.327-1.186
			c0.127-0.247,0.384-0.457,0.563-0.641c0.442-0.449,1.086-0.748,1.473-1.3c0.342,1.121-0.387,1.848-0.701,2.646
			c-0.323,0.827-0.773,1.584-1.236,2.201c-0.249,0.334-0.641,0.575-0.325,1.121c0.17,0.294,0.57,0.556,0.823,0.357
			c0.267-0.213,0.454-0.781,0.705-1.052c0.286-0.309,0.62-0.517,0.927-0.824c0.518-0.517,1.29-0.635,1.742,0.168
			c0.19,0.339,0.443,0.782,0.603,1.202c0.146,0.385,0.175,0.822,0.26,1.269c0.175,0.924-0.071,1.92-0.582,2.564
			c-0.372,0.469-0.844,0.766-1.307,0.764c-0.359-0.002-0.615-0.072-0.74,0.548c-0.064,0.322,0.017,0.725-0.168,0.956
			c-0.107,0.13-0.525,0.219-0.644,0.257c-0.365,0.113-1.316,0.309-1.59-0.107c-0.024-0.194-0.04-0.365-0.033-0.571
			c0.129-0.07,0.263,0,0.387-0.059c0.158-0.076,0.253-0.324,0.454-0.264c0.354,0.105,0.328,0.375,0.659-0.049
			c0.479-0.615,0.353-1.748,0.481-2.672c0.131-0.953,0.171-2.105,0.815-2.391c0.579-0.256,1.106,0.613,1.459,1.234
			c0.291-0.789-0.325-1.363-0.671-1.688c-0.506-0.476-0.875-0.653-1.418,0.009c-0.123,0.15-0.406,0.408-0.486,0.589
			c-0.118,0.262-0.092,0.865-0.121,1.186c-0.059,0.643-0.262,1.6-0.192,2.303c-0.235-0.262-0.521-0.441-0.771-0.662
			c-0.011,0.447,0.472,1.223,0.702,1.367c-0.561,0.399-1.163-0.302-1.399-1.061c-0.134-0.434-0.262-0.908-0.463-1.224
			c-0.247-0.387-0.478-0.35-0.831-0.331c-0.069,0.42-0.447,0.311-0.592,0.047c-0.147-0.262-0.071-0.54,0.014-0.897
			c0.075-0.312,0.055-0.787,0.141-1.1c0.109-0.406,0.401-0.295,0.496-0.686"/>
		<path fill="none" stroke="#485654" stroke-width="0.5" d="M-18.808,1168.863c0.134,0.02,0.203-0.178,0.346-0.141
			c0.059,0.505-0.289,0.581-0.45,0.825c-0.011-0.25-0.042-0.561,0.126-0.613"/>
		<path fill="none" stroke="#485654" stroke-width="0.5" d="M-14.295,1173.394c0.122,0.012,0.593-0.07,0.682,0.035
			c0.165,0.197-0.177,0.324-0.226,0.539c-0.085,0.383,0.164,0.613-0.219,0.648c-0.215,0.022-0.402,0.077-0.621,0.073
			c-0.079-0.512,0.399-0.696,0.58-0.86c-0.057-0.174-0.16-0.25-0.262-0.328"/>
		<path fill="none" stroke="#485654" stroke-width="0.5" d="M-12.094,1170.876c-0.032,0.227,0,0.527-0.041,0.75
			c-0.046,0.248-0.222,0.369-0.195,0.685c0.269,0.049,0.556-0.015,0.543-0.498c-0.009-0.285-0.142-0.589-0.219-0.828"/>
	</g>
</g>
<g id="Hair_Rear">
	<path fill="#4A3222" d="M-9.877,1144.375c0.09,2.761-0.25,5.667-0.25,8.503c0,1.508-0.014,3.107,0.195,4.49
		c0.236,1.565,0.627,2.999,0.533,4.628c-0.264-0.416-0.828-0.746-1.075-1.217c-0.302-0.576-0.173-1.196-0.476-1.719
		c0.081,1.307,0.405,2.996,0.752,4.344c0.18,0.691,0.693,1.4,0.854,2.093c0.167,0.719-0.087,1.613,0.263,2.244
		c-0.074-0.058-0.258-0.2-0.312-0.271c0.37,1.388,0.211,3.178,0.649,4.613c-0.224-0.725-0.79-1.638-1.506-2.027
		c1.201,1.617,1.438,6.248,0.275,7.936c-0.05-0.637,0.084-1.363-0.026-1.994c-0.125-0.723-0.596-1.303-0.627-2.059
		c-0.002,1.672,0.127,3.398,0,5.064c-0.3,3.939-1.268-1.657-2.232-1.771c-0.299-1.051-0.896-1.979-1.114-3.062
		c-0.229-1.141-0.274-2.314-0.501-3.416c-0.406-1.982-0.035-4.256-0.606-6.236c-0.555-1.919-0.847-4.704-0.798-7.684
		c0.005-0.321,0.371,0.097,0.798,0.023c0.953-0.164,1.635-0.352,2.035-0.722c0.913-0.842,1.655-2.642,1.859-3.572
		c0.283-1.289,0.314-3.051,0.31-4.565c-0.004-1.402,0.699-2.186,0.875-3.372"/>
</g>
<g id="Jewely">
	<path fill="#E6E7E8" d="M-76.377,1161.875c-0.438-1.158-1.603-0.134-2.159,0.348c-0.798,0.69-1.182,1.18-1.341,2.284
		c-0.172,1.193,0.257,1.966,0.492,2.355c0.216,0.355,0.591,1.121,0.849,1.418c0.364,0.418,0.466,0.725,0.924,0.705
		c0.223,0.047,0.398,0.002,0.594-0.032c0.039-0.2,0.273-0.687,0.272-0.815c-0.009-0.871-0.272-0.32-0.575-0.794
		c-0.361-0.567-0.691-0.952-0.912-1.724c-0.283-0.991-0.353-2.67,1.969-2.758c0.016-0.246,0.078-0.616,0.013-0.863"/>
	<path fill="#DAD7C5" d="M-13.02,1154.177c0.79-1.333,1.646-2.204,0.941-3.959c-0.596-1.487-1.51-2.853-3.237-3.102
		c-1.662-0.239-3.113,0.477-3.962,1.811c-0.461,0.723-0.756,1.233-0.803,2.127c-0.058,1.105,0.071,1.356,0.807,2.045
		c0.807,0.753,1.452,1.587,2.681,1.826c1.713,0.332,2.329,0.5,3.666-0.748"/>
	<path fill="#767769" d="M-15.404,1148.675c-0.915,0.005-1.257,0.104-1.858,0.798c-0.399,0.461-0.938,1.331-0.62,2.047
		c0.339,0.769,3.803,2.411,3.865,0.858c1.511-0.326,0.189-3.939-1.387-3.795"/>
	<path fill="#231F20" d="M-12.471,1137.581c0.908-1.599,3.818-0.884,4.197,0.664c0.176,0.714,0.168,2.285-0.114,2.904
		c-0.506,1.111-1.202,0.86-1.134,2.291c0.638,0.198,1.41-0.353,1.842-0.771c0.454-0.439,0.739-1.178,0.919-1.762
		c0.499-1.618,0.073-2.643-0.921-4.041c-0.766-1.076-1.611-1.873-3.154-1.508c-1.042,0.246-3.426,2.073-1.268,2.498"/>
</g>
<g id="Text" display="none">
	
		<text transform="matrix(1 0 0 1 -145.1636 1214.3838)" display="inline" opacity="0.1" fill="#E6E7E8" enable-background="new    " font-family="'OCRAStd'" font-size="21">I.R.Termite</text>
	<text transform="matrix(1 0 0 1 -94.1636 1218.3838)" display="inline" fill="#E6E7E8" font-family="'OCRAStd'" font-size="8">I.R.Termite</text>
</g>
<g id="Text_2" display="none">
	<g display="inline">
		<g>
			<defs>
				
					<text id="SVGID_1_" transform="matrix(0.7668 0.6419 -0.6419 0.7668 -160.4976 1140.585)" font-family="'OCRAStd'" font-size="21">I.R.Termite</text>
			</defs>
			<clipPath id="SVGID_2_">
				<use xlink:href="#SVGID_1_"  overflow="visible"/>
			</clipPath>
			<circle opacity="0.1" clip-path="url(#SVGID_2_)" fill="#E6E7E8" enable-background="new    " cx="-62" cy="1138" r="87.5"/>
		</g>
	</g>
	
		<text transform="matrix(0.7668 0.6419 -0.6419 0.7668 -143.9585 1162.3887)" display="inline" fill="#E6E7E8" font-family="'OCRAStd'" font-size="12">I.R.Termite</text>
</g>
<g id="Beard_Shadow">
	<path opacity="0.35" fill="#9B8579" enable-background="new    " d="M-77.042,1151.792c-0.679-1.221-3.532-0.031-4.038,0.864
		c-0.482,0.852-0.459,2.013-0.949,2.935c-0.4,0.758-0.985,1.428-1.452,2.208c-1.145,1.908-3.036,3.16-2.855,5.628
		c0.083,1.134,0.057,0.622,0.175,1.748c0.13,1.242,0.056,1.137-0.635,2.1c-1.017,1.415-0.522,1.415-2.177,2.572
		c-1.839,1.286-1.463,0.907-2.339,1.218c-0.852,0.302-1.573-0.23-3.157-0.064c-1.416-0.083-1.406-0.688-2.062-1.375
		c-0.812-0.851,0.917,1.669-0.969-1.719c-0.932-1.673-1.008-1.902-1.821-3.644c-0.425-0.911-0.621-1.968-1.033-2.904
		c-0.344-0.783-0.93-1.541-1.235-2.32c-0.384-0.98-0.71-3.359-1.79-5.475c0.104,1.178,0.475,2.073,0.657,3.281
		c0.289,1.918,0.667,2.594,0.942,3.633c0.524,1.972,0.937,2.308,1.74,4.232c0.411,0.986,0.911,2.152,1.435,3.041
		c0.515,0.876,2.23,3.938,2.23,3.938s2.58,4.088,3.698,6.299c1.02,2.016,1.847,3.355,2.864,5.139
		c1.074,1.882,1.683,2.659,2.594,4.281c0.712,1.267,1.57,2.409,2.062,3.208c0.533,0.865,0.518,0.672,2.357,2.917
		c1.838,2.245,0.397,0.448,2.946,3.331c2.548,2.883,2.854,1.928,7.854,1.969c1.201,0,3.051-0.057,4.15-0.36
		c1.259-0.346,2.162-0.775,3.483-0.895c2.25-0.201,4.347-0.271,6.605-0.63c1.396-0.221,2.324-1.016,3.473-1.749
		c1.115-0.712,2.113-0.666,3.348-0.978c2.613-0.66,5.022-2.377,7.136-3.873c1.955-1.383,3.843-2.617,5.718-4.143
		c1.754-1.426,3.552-2.783,5.394-3.988c1.829-1.197,3.427-2.58,5.198-3.844c1.581-1.125,3.355-2.475,4.602-4
		c2.562-3.143,3.417-7.045,3.417-11.17c0-4.785-0.93-8.812-0.919-13.583c0.006-2.662-1.695-4.664-1.979-7.305
		c-0.234-2.188-0.102-4.379-0.435-6.546c-0.324-2.122,0.752-3.947-0.406-5.77c-0.8-1.258-0.991-3.683-2.492-3.527
		c-0.369,0.038-2.264-4.028-2.608-3.884c-0.841,0.351-0.792,6.373-0.921,7.345c-0.363,2.727,0.291,4.637,1.065,7.105
		c0.79,2.523,0.654,0.089,0.654,2.783c0,4.621-0.691,4.033-1.98,5.748c-1.269,1.686-2.932,2.832-4.634,4.142
		c-1.673,1.288-3.224,2.106-5.215,3.11c-2.569,1.296-3.696,1.618-5.833,1.711c-3.066,0.133-1.666-0.223-5.664,0.592
		c0,0-0.962-0.005-2.03-1.121c-1.151-1.964-3.132-2.709-5.089-3.491c-1.069-0.427-1.936-1.011-3.105-1.097
		c-1.171-0.088-2.222,0.131-3.328-0.32c-1.642-0.668-4.72-1.259-6.416-0.616c-1.998,0.758-2.14,1.575-2.096,3.604
		c0.011,0.535,0.777,2.162,1.206,2.417c0.422,0.252,0.874-0.208,1.54-0.402c1.954-0.568,4.413-0.629,6.456-0.433
		c2.212,0.212,4.208,0.337,6.184,1.177c1.641,0.696,3.376,2.844,3.561,4.541c0.251,2.292,1.303,4.38,1.287,6.687
		c-0.02,2.964-3.133,2.11-5.368,2.211c-1.6,0.072-1.534,0.859-2.708,1.567c-0.523,0.314-2.34,0.525-2.865,0.162
		c-0.479-0.332-0.857-2.036-1.155-2.616c-0.414-0.807-0.673-1.161-1.549-1.321c-0.765-0.139-1.969-0.106-2.673,0.201
		c-0.975,0.427-1.018,1.425-2.249,1.079c-0.01,0.125-0.046,0.283-0.052,0.426c-0.277-0.122-0.533-0.058-0.799-0.352
		c-0.153,0.203-0.208,0.156-0.236,0.465c-0.709-0.036-0.239,0.385-0.648,0.607c-0.224,0.119-0.638-0.027-0.839,0.097
		c-0.42,0.264-0.895,0.846-1.479,0.709c0.006,1.833,4.042,3.224,1.376,5.154c-0.848,0.613-2.11,1.168-3.22,1.146
		c-1.078-0.02-2.638-0.023-3.679-0.318c-1.342-0.381-1.397-1.16-1.72-2.441c-0.269-1.065-0.854-1.821-0.926-2.959
		c-0.068-1.059-0.234-2.379-0.241-3.332c-0.008-1.054,0.581-1.676,1.017-2.583c0.564-1.179,1.154-2.196,2.014-3.275
		c0.87-1.091,1.529-2.484,2.461-3.504c1.098-1.202,1.958-0.428,2.464-2.077c0.154-0.5-0.282-1.332-0.473-1.867
		C-76.45,1152.617-76.658,1152.342-77.042,1151.792"/>
</g>
<g id="Beard">
	<path fill="#4A3222" d="M-77.042,1151.792c-0.602-1.174-3.532-0.031-4.038,0.864c-0.482,0.852-0.459,2.013-0.949,2.935
		c-0.4,0.758-0.985,1.428-1.452,2.208c-1.145,1.908-3.036,3.16-2.855,5.628c0.083,1.134,0.546,2.122,0.664,3.248
		c0.13,1.242,0.161,2.365,0.376,3.535c0.402,2.197,0.302,4.569,0.823,6.572c0.566,2.172,9.321,22.176,13.721,29.135
		c1.708,4.215,4.221,7.194,6.957,8.458c1.185,0.548,5.108-0.679,6.43-0.798c2.25-0.201,0.347-4.271,2.606-4.63
		c1.395-0.221,5.324,1.984,6.472,1.252c1.115-0.713,2.113-0.666,3.348-0.979c2.613-0.661,3.455-2.303,3.135-4.873
		c-0.677-5.435-1.169-11.87-2.029-16.847c-1.26-5.154-1.862-9.055-2.667-12.305c-1.021-4.124-2.084-10.191-3.344-14.071
		c-0.722-2.227-1.994-5.356-3.03-7.122c-1.151-1.964-3.132-2.708-5.089-3.491c-1.069-0.427-1.936-1.01-3.106-1.097
		c-1.171-0.088-2.222,0.131-3.328-0.32c-1.642-0.668-4.72-1.259-6.417-0.616c-1.998,0.758-2.14,1.575-2.096,3.605
		c0.011,0.535,0.776,2.162,1.206,2.417c0.421,0.252,0.874-0.208,1.54-0.401c1.954-0.569,4.414-0.629,6.456-0.434
		c2.212,0.212,4.208,0.338,6.184,1.177c1.641,0.696,3.376,2.844,3.561,4.541c0.251,2.292,1.302,4.381,1.287,6.687
		c-0.02,2.964-3.133,2.109-5.368,2.21c-1.601,0.073-1.535,0.859-2.708,1.567c-0.523,0.314-2.34,0.525-2.865,0.162
		c-0.48-0.332-0.857-2.036-1.155-2.616c-0.414-0.806-0.673-1.16-1.549-1.32c-0.765-0.14-1.97-0.106-2.673,0.201
		c-0.975,0.426-1.018,1.424-2.249,1.079c-0.01,0.125-0.047,0.283-0.052,0.427c-0.278-0.122-0.533-0.058-0.799-0.352
		c-0.153,0.202-0.208,0.155-0.236,0.465c-0.709-0.036-0.239,0.385-0.648,0.606c-0.224,0.119-0.639-0.027-0.839,0.098
		c-0.42,0.264-0.895,0.846-1.479,0.709c0.006,1.834,4.042,3.225,1.376,5.154c-0.848,0.613-2.11,1.168-3.22,1.146
		c-1.078-0.02-2.324,0.033-3.276-0.482c-0.98-0.53-1.553-0.844-1.875-2.125c-0.269-1.064-0.844-1.986-0.917-3.125
		c-0.067-1.059-0.491-2.365-0.498-3.318c-0.007-1.054,0.581-1.676,1.017-2.584c0.564-1.179,1.154-2.196,2.014-3.274
		c0.87-1.091,1.529-2.484,2.461-3.504c1.098-1.202,1.958-0.428,2.464-2.077c0.154-0.5-0.281-1.332-0.473-1.868
		C-76.45,1152.617-76.658,1152.342-77.042,1151.792"/>
</g>
<g id="Beard_White">
	<path fill="#A7A9AC" d="M-80.234,1180.744c1.392,5.113,2.551,6.547,4.872,11.506c2.321,4.959,8.529,17.244,10.363,19.914
		c1.833,2.67,3,2.287,3,2.287l4.275-0.825c0,0-1.317-2.459-3.026-6.959s-3.415-8.917-6.167-15.291
		c-2.751-6.374-3.283-9.563-3.771-10.745c-0.812-1.819-2.491-3.853-4.125-3.256c-1.097,0.466-1.902,1.332-3.257,0.938
		C-79.569,1177.71-80.522,1178-80.234,1180.744z"/>
	<path fill="#A7A9AC" d="M-61.428,1176.125c0,0,0.709,3.156,1.865,6.656s3.984,11.463,4.938,13.841s4.219,12.159,5.498,13.716
		c0.533,0.255,0.84-0.14,1.98-0.654c3.397-0.59,3.021-0.34,4.376-1.567c-0.474-2.538-0.604-2.773-1.354-5.116
		c-0.75-2.344-3.214-14.75-4.121-18.375c-0.906-3.626-2.852-11.413-2.852-11.413s-0.813-2.819-2.339-2.087
		c-0.973,0.355-2.379,0.164-3.438,0.438c-1.059,0.273-2.311,1.537-3.375,1.562C-61.477,1173.235-61.428,1176.125-61.428,1176.125"/>
</g>
<g id="Beard_White_2" display="none">
	<path display="inline" fill="#A7A9AC" d="M195.529,1652.665c2.007,25.263,24.315,75.618,36.249,101.121
		c11.936,25.503,43.865,88.685,53.294,102.416c9.425,13.729,15.428,11.76,15.428,11.76l21.987-4.242c0,0-6.773-12.646-15.562-35.789
		c-8.789-23.145-17.565-45.857-31.714-78.639c-14.146-32.783-28.828-87.797-31.339-93.873c-0.8,3.224-3.691,7.828-12.094,10.898
		c-5.638,2.396-16.453,2.489-23.42,0.463C200.645,1663.681,198.928,1660.997,195.529,1652.665z"/>
	<path display="inline" fill="#A7A9AC" d="M292.183,1639.402c0,0,14.906,47.687,20.854,65.687s20.49,58.951,25.392,71.183
		c4.901,12.229,21.697,62.531,28.277,70.538c2.742,1.315,4.318-0.718,10.184-3.365c17.471-3.032,15.539-1.746,22.507-8.061
		c-2.44-13.055-3.108-14.259-6.968-26.312c-3.854-12.057-16.531-75.854-21.192-94.5c-4.661-18.647-23.077-92.332-23.077-92.332
		s0.949,3.797-6.902,7.563c-5.001,1.828-18.615-0.17-24.062,1.236c-5.443,1.406-8.657,8.637-14.133,8.769
		C296.753,1640.378,292.183,1639.402,292.183,1639.402"/>
</g>
<g id="Glasses">
	<path fill="#6C301E" d="M-48.877,1112.375c0.018,0.96,0.493,2.831,1.034,3.597c0.552,0.781,1.661,1.309,2.559,1.809
		c1.941,1.082,4.024,1.642,5.876,2.844c0.909,0.589,1.856,1.3,3.002,1.625c1.145,0.325,2.077,0.722,3.053,1.344
		c1.863,1.187,3.605,2.403,5.444,3.571c0.984,0.626,2.193,1.353,3.146,1.772c-0.23-0.752-0.689-1.479-0.871-2.159
		c-0.144-0.535,0.099-1.431-0.141-1.916c-0.322-0.651-1.822-1.28-2.451-1.56c-2.104-0.938-3.573-2.547-5.773-3.493
		c-2.119-0.911-4.116-1.763-6.16-2.911c-2.125-1.193-4.113-2.111-6.191-3.433c-0.697-0.443-1.668-1.264-2.512-1.322
		c0.048,0.311-0.226,0.438-0.266,0.605"/>
	<path opacity="0.2" fill="#9F2214" enable-background="new    " d="M-76.502,1123.125c1.022,1.837,2.69,3.372,4.22,4.684
		c0.781,0.671,1.536,1.345,2.384,1.743c0.987,0.466,2.112,0.448,3.369,0.449c2.342,0.003,4.045-1.327,6.128-2.065
		c2.04-0.725,4.484-1.04,6.278-1.93c0.955-0.475,1.549-1.215,2.424-1.73c0.945-0.557,2.051-1.021,2.764-1.93
		c1.419-1.809,0.352-4.455-0.567-6.224c-1.25-2.408-2.452-3.254-5.006-4.162c-1.409-0.501-1.989-0.26-3.15,0.38
		c-1.114,0.615-2.196,0.583-3.378,1.036c-0.732,0.28-1.446,0.875-2.122,1.187c-0.805,0.371-1.608,0.337-2.435,0.598
		c-0.974,0.308-1.69,1.103-2.631,1.442c-0.779,0.281-1.802,0.24-2.625,0.459c-3.321,0.88-5.206,2.794-5.903,6.188"/>
	<path fill="#6E2405" d="M-77.252,1122.5c-0.244-1.266,1.022-1.978,1.575-2.868c0.668-1.076,0.75-1.299,1.959-1.977
		c2.115-1.185,4.123-2.207,6.435-2.939c1.205-0.381,2.036-0.85,3.291-1.088c1.065-0.202,1.986-0.733,2.984-1.162
		c1.908-0.82,4.96-1.504,7.005-1.094c0.826,0.165,1.422,0.352,2.334,0.394c0.09,0.457-0.224,1.051-0.611,1.304
		c-0.676,0.444-0.569,0.094-1.212-0.077c-1.143-0.302-2.053-0.25-3.16-0.144c-1.393,0.134-2.077,0.247-3.319,0.862
		c-1.109,0.548-2.137,0.483-3.34,0.757c-1.201,0.273-1.876,0.979-2.948,1.439c-0.983,0.422-2.004,0.768-2.987,1.214
		c-1.87,0.848-4.558,1.072-5.853,2.934c-0.482,0.693-1.019,3.111-2.01,3.177c-0.024-0.232-0.047-0.496-0.018-0.733"/>
	<path fill="#6E2405" d="M-85.013,1126.207c0.331-1.439,1.855-2.587,3.264-3.12c0.611-0.23,4.536-1.009,4.975-0.562
		c0.732,0.749-0.746,1.135-1.2,1.225c-0.992,0.197-1.378,0.347-2.281,0.719c-1.374,0.566-3.741,0.874-4.123,2.552
		c-0.136-0.136-0.869,0.216-0.936,0c-0.094-0.058-0.596-0.18-0.227-0.248c-0.035-0.174,0.618-0.484,0.539-0.647"/>
	<path fill="#BE1E2D" d="M-51.877,1112.25c0.625,0.873,0.018,3.077,0.866,3.637c0.431,0.285,1.397-0.214,1.878-0.143
		c0.563,0.083,1.256,0.584,1.605,0.999c0.149-0.68-0.411-1.399-0.593-2c-0.196-0.646-0.175-1.35-0.382-1.989
		c-0.469-1.447-1.803-1.442-3.359-1.36c-0.018,0.264-0.152,0.494-0.141,0.731"/>
	<path fill="#6E2405" d="M-108.377,1135c0.021-1.244,4.093-3.206,5.097-3.878c1.727-1.155,3.566-2.609,5.372-3.535
		c1.96-1.004,4.087-1.814,6.288-1.837c1.485-0.016,5.842-0.837,6.139,1.271c-2.019-0.117-4.544-0.117-6.648-0.02
		c-1.875,0.086-3.91,1.125-5.395,2.094c-1.764,1.15-3.816,2.164-5.63,3.162c-1.599,0.878-3.89,2.059-5.122,3.486
		c-0.414-0.228-0.627-0.609-0.588-1.071c0.34-0.075,0.646,0.021,0.863,0.203"/>
	<path opacity="0.2" fill="#9F2214" enable-background="new    " d="M-108.627,1135.75c0.013,3.905,3.437,9.728,8.003,8.999
		c1.035-0.165,1.961-0.812,2.865-1.273c1.066-0.544,2.27-0.777,3.375-1.344c2.085-1.07,4.486-2.069,6.357-3.41
		c1.593-1.141,3.459-2.743,4.177-4.627c0.95-2.495,0.116-4.209-1.439-5.945c-1.653-1.846-3.616-2.62-6.221-2.025
		c-1.951,0.448-3.924,1.414-5.688,2.289c-2.143,1.063-4.459,1.73-6.557,2.965c-1.625,0.958-4.987,2.097-4.999,4.372"/>
</g>
<g id="Head_hair">
	<path fill="#4A3222" d="M-103.379,1153.563c-2.088-4.046-5.25-8.607-6.01-13.09c-1.219-7.185-0.619-9.248-1.617-11.176
		c-0.111,1.084-0.234,1.033-0.857,1.928c0.033-2.049,1.433-8.257-0.088-9.719c-0.101,0.491-0.281,0.863-0.299,1.367
		c-0.072-1.986,0.317-3.815,0.249-5.799c0.071,0.692-0.741,2.078-0.849,2.67c-1.615-2.509-0.037-8.289-0.188-11.217
		c-0.935,0.431-1.589,1.568-1.726,2.783c-0.394-3.201,2.561-7.332,2.987-10.668c-0.407,0.367-0.87,0.682-1.216,1.05
		c1.551-2.041,5.867-4.82,4.898-7.905c-1.193,0.036-2.021,0.761-2.893,1.538c0.783-2.502,5.298-4.751,5.183-7.328
		c-0.577,0.589-1.472,0.699-2.373,0.445c1.842-0.767,3.446-2.427,4.375-4.188c0.721-1.367-0.65-1.996,1.307-2.511
		c1.838-0.484,2.439-0.091,3.084,1.288c-0.051-2.221,0.708-2.981,0.506-4.924c0.863,0.065,2.06,0.357,2.669,1.012
		c0.396-1.48,0.643-1.912,1.021-3.338c0.059,0.014,0.617,0.008,0.67-0.007c-0.04,1.191,0.485,2.305,1.616,1.752
		c0.604-0.296,0.959-3.062,1.621-3.764c-0.267,3.982,3.305,0.113,4.574-0.887c1.686-1.328,3.567-2.054,5.188-3.351
		c-0.111,0.758,0.113,1.72,0.131,2.448c2.366-0.672,3.951-2.294,6.046-3.286c2.325-1.101,4.786-1.994,7.123-3.177
		c-0.771,0.599-1.411,1.474-1.483,2.442c2.423,0.042,4.942-0.707,7.521-0.703c-3.035,1.009,1.928,2.019,2.3,3.206
		c2.376,0.745,5.999,0.63,7.948,1.545c-0.701,0.341-1.619,0.964-2.083,1.754c3.579,1.571,4.759,2.827,8.993,2.726
		c-3.23,0.652,0.363,1.51,1.131,1.948c1.162,0.664,2.128,1.809,3.352,2.631c2.977,2.002,5.818,3.309,8.315,5.938
		c2.023,2.13,3.959,4.035,5.8,6.507c1.73,2.325,3.253,5.319,5.45,7.46c-1.135-0.158-2.017-1.172-2.847-2.01
		c1.397,1.155,2.296,2.743,3.173,4.242c0.814,1.389,2.626,3.183,3.105,4.788c-0.581-0.307-1.297-0.359-1.903-0.918
		c1.083,4.043,5.139,6.847,5.667,11.418c0.106,0.923-0.194,2.141,0.044,3.024c0.263,0.976,1.34,2.158,1.816,3.231
		c0.586,1.32,0.898,6.648-1.779,4.136c0.145,2.2,1.312,4.163,1.191,6.843c-1.244,0.019-4.379-3.665-4.917-4.964
		c-0.277,1.731,0.856,4.032-0.232,5.306c-1.281,1.5-2.488,0.776-2.831-1.091c0.286,0.871-0.751,2.319-1,3.545
		c-0.345,1.695,0.077,3.74-0.038,5.479c-1.348-3.047-1.935-5.998-1.754-9.304c0.066-1.221,0.503-2.398,0.13-3.568
		c-0.428-1.341-1.993-2.263-2.257-3.582c-0.094,0.695-0.431,1.107-0.636,1.717c-0.86-1.31-0.89-3.404-1.695-4.753
		c-0.738-1.237-1.746-2.413-2.662-3.514c-2.02-2.431-5.525-4.887-6.855-7.6c0.294,0.451,0.649,0.607,1.054,0.976
		c0.087-2.999-5.176-6.249-7.302-8.189c0.181,1.36,0.425,2.392,1.429,3.362c-0.677-2.761-4.306-5.129-5.644-7.75
		c-0.997-1.949-2.87-3.821-3.305-6.042c-0.969,1.514-0.303,4.155-0.551,5.879c-3.165-3.62-2.368-8.743-6.938-11.541
		c0.667,1.828,0.793,3.896,1.526,5.666c-1.703-2.2-3.855-4.625-5.763-6.45c-0.312,1.895,1.008,4.229,2.566,5.199
		c-3.325,1.263-6.375-4.731-8.71-6.198c0.052,2.819,2.456,6.149,3.448,8.611c-0.255-0.521-0.94-1.046-1.27-1.472
		c-0.903,2.938-2.467,0.194-3.331-0.933c0.402,0.958,0.885,2.555,0.819,4.055c-0.743-2.707-2.488-6.971-4.761-8.741
		c0.031,2.021,0.014,4.044,0.012,6.066c0.066-3.783-3.623-10.801-4.494-3.638c-0.807-1.44-2.023-3.212-2.005-4.93
		c0,2.079,0.891,7.649-0.55,8.98c-0.488-0.481-2.465-4.065-2.87-4.135c-1.633-0.28-1.347,2.021-1.58,3.316
		c-0.574,3.177-1.187,6.273-2.167,9.38c-0.827-0.692-0.867-2.03-1.341-3.024c-0.741,0.84-1.686-0.32-2.297-1.081
		c-1.088,1.351-1,3.337-1.225,4.998c-1.767-1.475-1.184-4.966-1.818-6.983c-0.202-0.089-0.403-0.091-0.604-0.007
		c-1.373,2.737-2.523,4.421-2.547,7.536c-0.021,2.677-1.046,4.695-1.249,7.312c0.293-2.846-2.203-4.091-1.751-1.033
		c-0.001-3.282,0.229-6.47,0.255-9.759c-0.479,1.626-1.442,3.091-1.817,4.682c-0.375,1.593-0.047,3.287-0.188,4.937
		c-0.16,1.869-1.083,2.917-1.506,4.538c-0.484,1.858,0.081,4.302-0.038,6.235c-1.567-0.527-1.777-2.402-1.957-3.893
		c0.544,2.185,0.875,3.914,1.08,5.415c0.262,1.929-0.577,1.483,0.238,2.927c1.34,2.379,0.683,6.39,0.683,9.096
		c0,2.926-0.065,4.592,0.737,8.044c0.516,3.216-0.24,5.412-0.079,8.443"/>
</g>
</svg>
