<?xml version="1.0" encoding="utf-8"?>
<!-- Generator: Adobe Illustrator 15.0.0, SVG Export Plug-In . SVG Version: 6.00 Build 0)  -->
<!DOCTYPE svg PUBLIC "-//W3C//DTD SVG 1.1//EN" "http://www.w3.org/Graphics/SVG/1.1/DTD/svg11.dtd">
<svg version="1.1" xmlns="http://www.w3.org/2000/svg" xmlns:xlink="http://www.w3.org/1999/xlink" x="0px" y="0px" width="175px"
	 height="175px" viewBox="0 0 175 175" enable-background="new 0 0 175 175" xml:space="preserve">
<g id="Background" display="none">
	<rect display="inline" fill="#FF6600" width="900" height="900"/>
</g>
<g id="Background_Round">
	<circle fill="#FF6600" cx="87.5" cy="87.5" r="87.5"/>
</g>
<g id="Background_Round_copy">
</g>
<g id="Body">
	<g>
		<path fill="#F0D0B4" d="M96.57,168.193c1.983-2.918,11.631-12.033,21.34-20.641c12.404-11.725,19.2-16.799,19.878-17.053
			c-1.51-6.25-4.656-21.596-4.167-24.167c5.002,0.52,4.856-5.877,5.167-7.667c1.193-7.318,2.785-14.277,0.365-19.42
			c-2.042-2.798-6.365-2.58-6.365-2.58l-10.167-22.333L96.954,32l-27.5-5L46.017,53.896c0,0-2.688,16.812-1.375,22.625
			c1.625,6-0.167,9.239,0.997,14.097c-0.083,7.667-0.479,10.502,2.331,20.146c3.9,8.785,2.924,6.486,7.883,14.945
			c2.107,3.594,6.428,11.197,6.428,11.197s5.377,7.281,7.365,9.456c2.444,2.089,2.784,2.089,5.291,2.089
			c2.182,4.171,8.662,15.008,10.351,18.049c1.073,4.407,2.334,6.57,3.785,8.5h3.776C93.5,171.922,95.228,169.846,96.57,168.193z"/>
	</g>
	<path fill="#DFB28B" d="M134.603,79.472c2.491,0.941,4.132,2.963,4.125,5.68c-0.003,1.441,0.068,2.916-0.07,4.338
		c-0.111,1.137-1.442,2.606-0.653,3.615c-0.502-1.197-0.937-2.895-0.927-4.189c0.011-1.385-0.066-2.724-0.848-3.828
		c-0.445-0.63-0.248-0.99-0.522-1.606c-0.222-0.496-0.935-0.733-1.311-0.983c-0.38-0.254-1.444-0.65-1.542-1.189
		c-0.097-0.533,0.727-1.096,0.842-1.637c0.154-0.018,0.383-0.057,0.539-0.016"/>
	<path fill="#CB8C84" d="M75.954,106.625c0.397-2.753,3.644-1.625,5.722-1.625c2.409,0,4.601-0.25,7.001-0.25
		c0.676,0,3.359-0.362,3.758,0.109c0.857,1.013-1.18,2.149-1.756,2.366c-1.065,0.399-2.359,0.238-3.465,0.4
		c-1.286,0.188-2.506,0.361-3.889,0.374c-1.909,0.019-2.651,0.96-4.218,1.75c-1.589,0.802-3.049,0.849-4.659,1.375
		c-1.382,0.452-2.479,1.37-3.62,2.402c-1.146,1.036-2.687,1.82-3.849,2.835c-0.071-1.105,1.391-1.945,1.853-2.853
		c0.559-1.094,1.107-2.175,1.778-3.266c0.472-0.767,1.132-2.39,1.747-2.964c0.784-0.731,2.514-0.029,3.699-0.202
		c0.021-0.2,0.136-0.388,0.147-0.578"/>
	<path fill="#F0BEB4" d="M71.079,117c2.443,0.487,4.305,0.116,6.344-1.284c0.896-0.615,1.472-1.088,2.534-1.341
		c0.952-0.228,1.924-0.41,2.859-0.632c1.103-0.262,2.169-0.384,3.259-0.834c1-0.412,1.787-1.047,2.748-1.513
		c0.91-0.441,2.234-0.624,2.98-1.293c0.719-0.643,0.877-1.721,1.359-2.452c-1.191,0.185-2.148,0.674-3.358,1.032
		C88.601,109.042,87.47,109,86.179,109c-2.23,0-5.077-0.528-6.878,0.906c-1.073,0.856-1.169,1.276-2.625,1.344
		c-1.27,0.06-2.366-0.2-3.405,0.462c-0.989,0.63-2.074,1.785-2.817,2.691c-0.512,0.625-1.6,1.523-1.889,2.222
		c0.53,0.488,1.387,0.112,2.015,0.625"/>
	<path fill="#56331D" d="M45.225,79.594c0.211-0.466,1.385-1.016,1.833-1.394c0.601-0.504,1.105-0.908,1.62-1.5
		c0.982-1.127,2.287-1.961,3.386-2.938c0.545-0.484,0.942-1.096,1.636-1.412c0.698-0.317,1.498-0.275,2.262-0.347
		c1.531-0.143,3.159-0.239,4.756-0.147c1.091,2.11-1.32,2.377-2.895,2.408c-1.864,0.037-2.942,0.762-4.427,1.631
		c-0.731,0.428-1.396,1.004-2.052,1.523c-0.723,0.57-1.301,0.917-2.078,1.345c-1.422,0.784-2.557,2.288-4.381,1.897
		c-0.182-0.039-0.428-0.037-0.617-0.025c-0.191-0.844,1.068-0.75,1.199-1.284"/>
	<path fill="#56331D" d="M75.422,66.513c0.078-0.541,0.546-0.824,0.738-1.277c0.516-0.26,0.795-1.021,1.238-1.43
		c0.482-0.441,1.1-0.733,1.676-1.063c1.457-0.834,2.905-1.395,4.282-2.424c1.297-0.968,2.384-1.802,4.088-1.798
		c2.054,0.004,4.062,0.057,6.068,0.242c1.244,0.115,1.947,0.896,3.266,0.884c-0.979,0.162-2.227,0.175-3.193,0.524
		c-0.788,0.284-1.373,0.738-2.258,0.773c-1.626,0.062-3.152,0.224-4.637,0.707c-1.926,0.627-3.621,1.551-5.441,2.379
		c-1.684,0.767-3.252,1.076-4.856,2.082c-0.406,0.254-0.795,0.602-1.213,0.24"/>
	<path fill="#CEA28B" d="M129.468,88.548c1.869,0.053,4.648-1.529,4.931,1.371c0.122,1.253-0.327,2.195-0.442,3.377
		c-0.095,0.964,0.002,2.126-1.178,2.312c-0.026-0.727,0.034-1.193-0.285-1.766c-0.347-0.621-0.701-0.52-1.195-0.869
		c-0.931-0.657-1.117-1.678-2.46-1.685c-0.018-0.414-0.065-0.917,0.05-1.299c0.115-0.38,0.475-0.608,0.488-1.167"/>
	<path fill="#DFB28B" d="M76.547,88.15c1.246-0.914,3.533-2.986,5.122-2.06c0.756,0.441,1.257,1.249,1.986,1.719
		c0.834,0.538,1.516,1.045,2.24,1.688c-0.301,0.35-0.348,0.866-0.285,1.356c-1.011-1.164-1.264-2.728-2.918-3.085
		c-1.464-0.316-4.224-0.236-5.655,0.136"/>
	<path fill="#9C7761" d="M65.127,93.062c0.075,1.234-0.533,2.547-0.245,3.785c0.208,0.896,0.674,1.09,1.269,1.68
		c0.861,0.854,2.234,2.051,3.648,2.025c1.92-0.033,3.531-0.535,5.001-1.812c0.964-0.837,2.572-2.134,2.985-3.3
		c-1.165,0.572-1.646,1.317-3.053,1.182c-1.368-0.131-1.732-0.947-2.887-1.534c-1.114-0.567-2.249-0.364-3.531-0.427
		c-0.405-0.02-1.305,0.008-1.717-0.123c-0.625-0.2-0.881-0.752-1.471-0.984"/>
</g>
<g id="Shirt" display="none">
	<path display="inline" fill="#231F20" d="M785.145,742.456c-15.419,5.654-34.453,9.521-50.745,11.883
		c-27.592,3.987-52.233,18.281-77.394,28.907c-24.621,10.386-44.118,27.653-70.143,30.205c-9.021,0.882-16.708,1.655-25.623,2.552
		c-8.016,0.803-13.198,3.917-20.432,5.804c-10.356,2.704-10.673,3.697-16.875,12.023c-3.756,5.042-9.718,9.173-13.972,14.095
		c-12.671,14.654-27.428,32.241-32.373,52.075H900V721.591C878.344,719.227,792.858,739.623,785.145,742.456z"/>
	<path display="inline" fill="#231F20" d="M454.245,880.951c-3.97-7.204-3.366-17.098-8.364-23.906
		c-3.671-5.004-2.786-5.886-9.211-1.89c-1.843,1.146-4.825,4.632-6.595,6.249c-5.382,4.942-10.09,8.657-16.146,12.434
		c-12.457,7.767-25.421,17.423-37.201,26.162h90.387C462.923,893.616,457.96,887.701,454.245,880.951z"/>
	<path display="inline" fill="#5D5E61" d="M706.052,672.003c4.884,0,11.423-1.125,16.072,0.19
		c7.374,2.089,7.535,6.539,11.982,11.681c2.965,3.425,8.669,5.877,12.023,9.683c2.944,3.346,4.632,8.54,7.646,11.903
		c6.258,7.002,14.394,11.262,20.675,18.12c7.922,8.64,13.374,12.97,24.173,18.062c-6.771,1.939-9.255,1.588-15.604,5.575
		c-5.801,3.645-11.912,6.729-17.865,10.286c-9.744,5.804-20.089,11.379-29.938,18.472c-18.407,13.248-45.267,29.991-45.773,55.324
		c-16.427,0.935-30.038-4.169-46.154-4.157c-11.716,0.009-23.429,0-35.142,0c-14.016,0-28.204-0.674-42.196,0.009
		c-7.837,0.384-16.74-0.281-24.51,0.855c-5.353,0.773-9.513,3.624-15.264,2.25c-0.671-11.924,20.476-25.767,28.778-33.319
		c11.314-10.307,22.913-19.729,34.74-29.643c24.299-20.391,45.993-45.551,71.065-62.467c13.907-9.372,30.053-20.18,42.721-31.107"/>
</g>
<g id="Layer_19">
</g>
<g id="Mouth">
	<path fill="#4A0F00" d="M67.403,116.661c0.256-1.104,1.686-1.904,2.455-2.62c0.688-0.64,1.041-1.432,1.748-2.101
		c0.6-0.566,1.514-1.558,2.244-1.934c1.067-0.551,1.832,0.045,2.791,0.125c1.224,0.102,1.341-0.648,2.043-1.526
		c0.75-0.938,1.57-1.114,2.793-1.216c2.22-0.183,4.37-0.361,6.613-0.453c0.829-0.033,2.345-0.091,3.027-0.479
		c0.544-0.31,0.931-2.165,1.588-1.65c0.667,0.521-0.007,2.357-0.409,2.724c-0.633,0.576-1.961,1.064-2.783,1.191
		c-2.147,0.33-4.453-0.329-6.596,0.025c-2.007,0.332-3.269,2.221-5.11,2.725c-0.98,0.27-2.201-0.299-3.171,0.099
		c-0.71,0.29-1.827,1.31-2.376,1.897c-0.715,0.765-1.025,1.656-2.121,2.159c-0.863,0.397-1.767,0.699-2.623,1.147L67.403,116.661z"
		/>
</g>
<g id="Nose">
	<path fill="#4A3222" d="M74.257,94.167c0.473-0.23,1.023-0.215,1.504-0.578c0.604-0.455,0.682-1.099,1.447-1.398
		c1.015-0.397,3.051-0.381,4.159-0.341c0.419,1.7-0.69,2.694-2.317,3.054c-1.293,0.285-3.607-1.22-4.574,0.021
		c-0.225-0.091-0.168-0.135-0.338-0.273c0.012-0.127,0.092-0.165,0.242-0.115"/>
	<path fill="#4A3222" d="M67.382,96.868c1.909-0.92,2.144-0.29,3.455,0.982c-0.857,0.414-1.262-0.303-2.007-0.344
		c-0.714-0.038-1.874,0.859-1.571-0.516"/>
</g>
<g id="Eyes">
	<path fill="#4A0F00" d="M81.177,77.052c0.521-0.145,1.499-1.328,1.964-1.609c0.856-0.518,1.199-0.781,1.975-1.356
		c0.475-0.353,2.072-1.079,2.652-1.081c0.66-0.003,0.008,0.607,0.605,0.838c0.702,0.27,1.443,0.24,2.508,0.148
		c0.742-0.064,1.635-0.372,2.176-0.893c0.592-0.57,0.488-1.148,1.292-1.438c1.042-0.373,5.784,0.553,6.011-0.288
		c0.24-0.888-3.867-0.942-4.555-1.083c-1.963-0.4-3.398-0.046-5.354,0.047c-2.1,0.1-4.123,1.435-5.787,2.562
		c-0.699,0.475-1.258,1.178-1.897,1.756c-0.753,0.682-1.145,1.004-1.645,1.796L81.177,77.052z"/>
	<path fill="#4A0F00" d="M52.061,89.875c0.438-0.156,0.474-1.031,0.628-1.424c0.191-0.483,0.457-0.977,0.73-1.452
		c0.549-0.961,1.121-1.886,1.91-2.676c1.787-1.79,3.62-2.266,6.104-2.389c0.411-0.021,0.911-0.057,1.317,0.003
		c0.574,0.083,0.449,0.307,0.865,0.511c0.021,0.18,0.045,0.383,0.066,0.539c-0.233,0.016-0.656-0.074-0.869,0.013
		c-0.364,0.149-0.313,0.254-0.38,0.687c-0.091,0.593-0.337,0.952-0.7,1.425c-0.766,0.993-1.518,0.951-2.797,0.951
		c-0.723,0-1.037-0.015-1.582-0.421c-0.28-0.208-0.246-0.378-0.666-0.395c-0.398-0.017-0.418,0.053-0.735,0.331
		c-0.86,0.752-1.78,1.462-2.36,2.481c-0.461,0.813-0.67,1.607-1.461,2.127c-0.117-0.172-0.164-0.4-0.134-0.624"/>
</g>
<g id="Tattoo">
	<g>
		<path fill="none" stroke="#485654" stroke-width="0.5" d="M130.579,117.794c0.402-0.717,0.416-1.701,0.691-2.522
			c0.297-0.883,0.515-1.603,1.059-2.176c0.269-0.284,0.589-0.816,0.917-0.889c0.106-0.023,0.427-0.045,0.399,0.274
			c-0.008,0.098-0.318,0.298-0.365,0.331c-0.277,0.204-0.534,0.353-0.785,0.654c-0.271,0.323-0.371,0.803-0.557,1.188
			c-0.139,0.287-0.271,0.352-0.25,0.756c0.078,0.021,0.195,0.078,0.264,0.086c0.23-0.32,0.144-0.825,0.327-1.186
			c0.127-0.247,0.384-0.456,0.563-0.641c0.441-0.449,1.086-0.748,1.473-1.3c0.342,1.12-0.387,1.848-0.701,2.646
			c-0.323,0.827-0.773,1.584-1.236,2.201c-0.249,0.334-0.641,0.575-0.325,1.121c0.17,0.294,0.569,0.556,0.823,0.356
			c0.267-0.213,0.453-0.78,0.705-1.052c0.286-0.309,0.62-0.517,0.927-0.823c0.519-0.518,1.29-0.635,1.742,0.168
			c0.19,0.339,0.442,0.782,0.603,1.201c0.146,0.385,0.176,0.822,0.26,1.27c0.176,0.924-0.071,1.92-0.582,2.564
			c-0.372,0.469-0.844,0.766-1.307,0.764c-0.359-0.002-0.615-0.072-0.74,0.549c-0.064,0.322,0.017,0.725-0.168,0.955
			c-0.107,0.131-0.525,0.219-0.645,0.258c-0.364,0.113-1.316,0.309-1.59-0.107c-0.024-0.193-0.039-0.365-0.033-0.57
			c0.129-0.07,0.264,0,0.388-0.059c0.157-0.076,0.253-0.324,0.454-0.264c0.354,0.105,0.328,0.375,0.658-0.049
			c0.479-0.615,0.354-1.748,0.481-2.672c0.132-0.953,0.171-2.105,0.815-2.391c0.578-0.256,1.105,0.613,1.459,1.234
			c0.291-0.789-0.325-1.363-0.672-1.688c-0.506-0.476-0.875-0.653-1.418,0.009c-0.123,0.151-0.405,0.408-0.486,0.59
			c-0.117,0.262-0.092,0.865-0.121,1.186c-0.059,0.643-0.262,1.6-0.192,2.303c-0.235-0.262-0.521-0.441-0.771-0.662
			c-0.011,0.447,0.472,1.223,0.702,1.367c-0.561,0.398-1.162-0.303-1.398-1.061c-0.135-0.434-0.263-0.908-0.464-1.225
			c-0.246-0.387-0.478-0.35-0.831-0.33c-0.069,0.42-0.447,0.311-0.592,0.047c-0.147-0.262-0.071-0.539,0.014-0.896
			c0.074-0.312,0.055-0.787,0.141-1.101c0.109-0.405,0.401-0.295,0.496-0.686"/>
		<path fill="none" stroke="#485654" stroke-width="0.5" d="M130.692,118.363c0.134,0.02,0.203-0.178,0.346-0.141
			c0.059,0.505-0.289,0.581-0.45,0.825c-0.011-0.25-0.042-0.561,0.126-0.613"/>
		<path fill="none" stroke="#485654" stroke-width="0.5" d="M135.205,122.894c0.122,0.012,0.593-0.07,0.682,0.035
			c0.165,0.197-0.177,0.324-0.226,0.539c-0.086,0.383,0.163,0.613-0.219,0.648c-0.216,0.021-0.402,0.076-0.621,0.072
			c-0.079-0.512,0.398-0.695,0.58-0.859c-0.057-0.174-0.16-0.25-0.262-0.328"/>
		<path fill="none" stroke="#485654" stroke-width="0.5" d="M137.406,120.376c-0.032,0.227,0,0.527-0.041,0.75
			c-0.046,0.248-0.222,0.369-0.195,0.686c0.269,0.049,0.557-0.016,0.543-0.498c-0.009-0.285-0.142-0.59-0.219-0.828"/>
	</g>
</g>
<g id="Hair_Rear">
	<path fill="#4A3222" d="M139.623,93.875c0.09,2.761-0.25,5.667-0.25,8.503c0,1.508-0.015,3.107,0.195,4.49
		c0.236,1.564,0.627,2.999,0.533,4.628c-0.264-0.416-0.828-0.746-1.075-1.218c-0.302-0.575-0.173-1.195-0.476-1.719
		c0.081,1.307,0.404,2.996,0.752,4.344c0.18,0.691,0.693,1.4,0.854,2.094c0.167,0.719-0.087,1.613,0.263,2.243
		c-0.074-0.058-0.258-0.199-0.312-0.271c0.37,1.388,0.211,3.178,0.648,4.613c-0.224-0.725-0.79-1.639-1.506-2.027
		c1.201,1.617,1.438,6.248,0.275,7.936c-0.05-0.637,0.084-1.363-0.025-1.994c-0.125-0.723-0.597-1.303-0.628-2.059
		c-0.002,1.672,0.127,3.398,0,5.064c-0.3,3.939-1.268-1.656-2.232-1.771c-0.299-1.051-0.896-1.979-1.114-3.062
		c-0.229-1.141-0.274-2.314-0.501-3.416c-0.406-1.982-0.035-4.256-0.606-6.236c-0.555-1.92-0.847-4.704-0.798-7.684
		c0.005-0.321,0.371,0.097,0.798,0.023c0.953-0.164,1.635-0.352,2.035-0.722c0.913-0.842,1.654-2.642,1.858-3.572
		c0.283-1.289,0.314-3.051,0.311-4.565c-0.004-1.402,0.699-2.186,0.875-3.372"/>
</g>
<g id="Jewely">
	<path fill="#E6E7E8" d="M73.123,111.375c-0.438-1.158-1.603-0.134-2.159,0.348c-0.798,0.69-1.182,1.18-1.341,2.284
		c-0.172,1.193,0.257,1.966,0.492,2.355c0.216,0.355,0.591,1.121,0.849,1.418c0.364,0.418,0.466,0.725,0.924,0.705
		c0.223,0.047,0.398,0.002,0.594-0.032c0.039-0.2,0.273-0.687,0.272-0.815c-0.009-0.871-0.272-0.32-0.575-0.794
		c-0.361-0.567-0.691-0.952-0.912-1.724c-0.283-0.991-0.354-2.67,1.969-2.758c0.016-0.246,0.078-0.616,0.013-0.862"/>
	<path fill="#DAD7C5" d="M136.48,103.677c0.79-1.333,1.646-2.204,0.941-3.959c-0.596-1.486-1.51-2.853-3.236-3.102
		c-1.662-0.239-3.113,0.477-3.963,1.811c-0.461,0.723-0.756,1.232-0.803,2.127c-0.059,1.105,0.07,1.356,0.807,2.045
		c0.807,0.754,1.451,1.588,2.681,1.826c1.713,0.332,2.328,0.5,3.665-0.748"/>
	<path fill="#767769" d="M134.096,98.175c-0.915,0.006-1.257,0.104-1.858,0.799c-0.399,0.461-0.938,1.33-0.62,2.047
		c0.34,0.769,3.803,2.411,3.865,0.858c1.512-0.326,0.189-3.939-1.387-3.796"/>
	<path fill="#231F20" d="M137.029,87.081c0.908-1.599,3.818-0.884,4.197,0.664c0.176,0.714,0.168,2.285-0.114,2.904
		c-0.507,1.111-1.202,0.86-1.134,2.291c0.638,0.197,1.41-0.354,1.842-0.771c0.453-0.439,0.739-1.178,0.919-1.762
		c0.499-1.618,0.073-2.644-0.921-4.041c-0.766-1.075-1.611-1.873-3.154-1.508c-1.041,0.246-3.426,2.073-1.268,2.498"/>
</g>
<g id="Text" display="none">
	
		<text transform="matrix(1 0 0 1 4.3364 163.8838)" display="inline" opacity="0.1" fill="#E6E7E8" font-family="'OCRAStd'" font-size="21">I.R.Termite</text>
	<text transform="matrix(1 0 0 1 55.3364 167.8838)" display="inline" fill="#E6E7E8" font-family="'OCRAStd'" font-size="8">I.R.Termite</text>
</g>
<g id="Text_2" display="none">
	<g display="inline">
		<defs>
			<text id="SVGID_1_" transform="matrix(0.7668 0.6419 -0.6419 0.7668 -10.9976 90.085)" font-family="'OCRAStd'" font-size="21">I.R.Termite</text>
		</defs>
		<clipPath id="SVGID_2_">
			<use xlink:href="#SVGID_1_"  overflow="visible"/>
		</clipPath>
		<circle opacity="0.1" clip-path="url(#SVGID_2_)" fill="#E6E7E8" cx="87.5" cy="87.5" r="87.5"/>
	</g>
	
		<text transform="matrix(0.7668 0.6419 -0.6419 0.7668 5.5415 111.8887)" display="inline" fill="#E6E7E8" font-family="'OCRAStd'" font-size="12">I.R.Termite</text>
</g>
<g id="Beard_Shadow">
	<path opacity="0.35" fill="#9B8579" d="M72.458,101.292c-0.679-1.221-3.532-0.031-4.038,0.864
		c-0.482,0.852-0.459,2.013-0.949,2.935c-0.4,0.758-0.985,1.428-1.452,2.207c-1.145,1.908-3.036,3.16-2.855,5.629
		c0.083,1.134,0.057,0.622,0.175,1.748c0.13,1.242,0.057,1.137-0.635,2.1c-1.017,1.415-0.521,1.415-2.177,2.572
		c-1.839,1.286-1.464,0.907-2.34,1.218c-0.852,0.302-1.573-0.23-3.156-0.064c-1.417-0.083-1.406-0.688-2.062-1.375
		c-0.812-0.851,0.917,1.669-0.969-1.719c-0.932-1.673-1.008-1.902-1.821-3.644c-0.425-0.911-0.621-1.968-1.033-2.904
		c-0.344-0.783-0.93-1.541-1.235-2.32c-0.384-0.98-0.71-3.359-1.79-5.475c0.104,1.178,0.475,2.073,0.657,3.281
		c0.289,1.918,0.667,2.594,0.942,3.633c0.523,1.972,0.937,2.308,1.739,4.231c0.411,0.986,0.911,2.152,1.435,3.041
		c0.516,0.876,2.231,3.938,2.231,3.938s2.58,4.088,3.698,6.299c1.02,2.016,1.847,3.354,2.864,5.139
		c1.074,1.882,1.683,2.659,2.594,4.281c0.712,1.267,1.57,2.409,2.062,3.208c0.533,0.865,0.518,0.672,2.357,2.917
		c1.838,2.245,0.397,0.448,2.946,3.331c2.548,2.883,2.854,1.929,7.854,1.97c1.201,0,3.051-0.058,4.15-0.36
		c1.259-0.346,2.161-0.775,3.483-0.895c2.25-0.201,4.347-0.271,6.605-0.631c1.396-0.221,2.324-1.016,3.473-1.748
		c1.115-0.713,2.113-0.666,3.348-0.979c2.613-0.66,5.021-2.377,7.136-3.873c1.954-1.383,3.843-2.617,5.718-4.143
		c1.754-1.426,3.552-2.783,5.394-3.988c1.829-1.197,3.427-2.58,5.198-3.844c1.581-1.125,3.355-2.475,4.602-4
		c2.562-3.143,3.417-7.045,3.417-11.17c0-4.785-0.93-8.812-0.919-13.582c0.006-2.662-1.695-4.664-1.979-7.306
		c-0.234-2.188-0.103-4.379-0.436-6.546c-0.324-2.121,0.752-3.946-0.406-5.77c-0.8-1.258-0.99-3.683-2.492-3.527
		c-0.369,0.038-2.264-4.027-2.608-3.884c-0.841,0.351-0.792,6.373-0.921,7.345c-0.363,2.727,0.291,4.637,1.064,7.105
		c0.79,2.523,0.654,0.089,0.654,2.783c0,4.621-0.691,4.033-1.98,5.748c-1.269,1.686-2.932,2.832-4.634,4.142
		c-1.673,1.288-3.224,2.106-5.215,3.11c-2.569,1.296-3.696,1.618-5.833,1.711c-3.066,0.133-1.666-0.224-5.664,0.592
		c0,0-0.962-0.006-2.03-1.121c-1.151-1.965-3.133-2.709-5.089-3.491c-1.069-0.427-1.936-1.011-3.105-1.097
		c-1.171-0.088-2.222,0.131-3.328-0.32c-1.643-0.669-4.72-1.259-6.416-0.616c-1.998,0.758-2.14,1.575-2.097,3.604
		c0.012,0.535,0.777,2.162,1.206,2.417c0.422,0.252,0.874-0.208,1.54-0.401c1.953-0.568,4.413-0.629,6.456-0.434
		c2.212,0.212,4.207,0.338,6.184,1.177c1.641,0.696,3.376,2.844,3.561,4.541c0.251,2.292,1.303,4.381,1.287,6.687
		c-0.02,2.965-3.133,2.109-5.368,2.211c-1.601,0.072-1.534,0.859-2.708,1.566c-0.523,0.314-2.34,0.525-2.865,0.162
		c-0.479-0.332-0.857-2.036-1.155-2.616c-0.414-0.806-0.673-1.16-1.549-1.32c-0.765-0.14-1.97-0.106-2.674,0.201
		c-0.975,0.427-1.018,1.425-2.248,1.079c-0.01,0.125-0.047,0.283-0.053,0.427c-0.277-0.122-0.533-0.058-0.799-0.352
		c-0.153,0.202-0.209,0.155-0.236,0.465c-0.709-0.036-0.238,0.385-0.647,0.606c-0.224,0.119-0.639-0.027-0.839,0.098
		c-0.42,0.264-0.895,0.846-1.479,0.709c0.006,1.834,4.041,3.225,1.376,5.154c-0.848,0.613-2.11,1.168-3.22,1.146
		c-1.078-0.02-2.638-0.023-3.679-0.318c-1.342-0.381-1.397-1.16-1.72-2.441c-0.269-1.064-0.854-1.82-0.926-2.959
		c-0.067-1.059-0.234-2.379-0.241-3.331c-0.008-1.054,0.581-1.676,1.017-2.584c0.564-1.179,1.154-2.196,2.014-3.274
		c0.87-1.092,1.529-2.484,2.461-3.504c1.098-1.202,1.958-0.428,2.464-2.077c0.154-0.501-0.281-1.332-0.473-1.867
		C73.05,102.117,72.842,101.842,72.458,101.292"/>
</g>
<g id="Beard">
	<path fill="#4A3222" d="M72.458,101.292c-0.602-1.174-3.532-0.031-4.038,0.864c-0.482,0.852-0.459,2.013-0.949,2.935
		c-0.4,0.758-0.985,1.428-1.452,2.207c-1.145,1.908-3.036,3.16-2.855,5.629c0.083,1.134,0.546,2.122,0.664,3.248
		c0.131,1.242,0.161,2.365,0.376,3.535c0.402,2.197,0.302,4.568,0.823,6.572c0.566,2.172,9.321,22.176,13.721,29.135
		c1.708,4.215,4.221,7.193,6.957,8.458c1.185,0.548,5.107-0.679,6.43-0.798c2.25-0.201,0.347-4.271,2.605-4.631
		c1.396-0.221,5.324,1.984,6.473,1.252c1.115-0.713,2.113-0.666,3.348-0.979c2.613-0.66,3.456-2.303,3.136-4.873
		c-0.677-5.435-1.169-11.87-2.029-16.847c-1.261-5.154-1.862-9.055-2.667-12.305c-1.021-4.123-2.084-10.19-3.344-14.071
		c-0.723-2.227-1.994-5.355-3.03-7.121c-1.151-1.965-3.133-2.709-5.089-3.491c-1.069-0.427-1.936-1.011-3.105-1.097
		c-1.171-0.088-2.222,0.131-3.328-0.32c-1.643-0.669-4.72-1.259-6.416-0.616c-1.998,0.758-2.14,1.575-2.097,3.604
		c0.012,0.535,0.777,2.162,1.206,2.417c0.422,0.252,0.874-0.208,1.54-0.401c1.953-0.568,4.413-0.629,6.456-0.434
		c2.212,0.212,4.207,0.338,6.184,1.177c1.641,0.696,3.376,2.844,3.561,4.541c0.251,2.292,1.303,4.381,1.287,6.687
		c-0.02,2.965-3.133,2.109-5.368,2.211c-1.601,0.072-1.534,0.859-2.708,1.566c-0.523,0.314-2.34,0.525-2.865,0.162
		c-0.479-0.332-0.857-2.036-1.155-2.616c-0.414-0.806-0.673-1.16-1.549-1.32c-0.765-0.14-1.97-0.106-2.674,0.201
		c-0.975,0.427-1.018,1.425-2.248,1.079c-0.01,0.125-0.047,0.283-0.053,0.427c-0.277-0.122-0.533-0.058-0.799-0.352
		c-0.153,0.202-0.209,0.155-0.236,0.465c-0.709-0.036-0.238,0.385-0.647,0.606c-0.224,0.119-0.639-0.027-0.839,0.098
		c-0.42,0.264-0.895,0.846-1.479,0.709c0.006,1.834,4.041,3.225,1.376,5.154c-0.848,0.613-2.11,1.168-3.22,1.146
		c-1.078-0.02-2.324,0.032-3.277-0.482c-0.98-0.529-1.553-0.844-1.875-2.125c-0.269-1.064-0.844-1.986-0.917-3.125
		c-0.067-1.059-0.49-2.365-0.497-3.317c-0.008-1.054,0.581-1.676,1.017-2.584c0.564-1.179,1.154-2.196,2.014-3.274
		c0.87-1.092,1.529-2.484,2.461-3.504c1.098-1.202,1.958-0.428,2.464-2.077c0.154-0.501-0.281-1.332-0.473-1.867
		C73.05,102.117,72.842,101.842,72.458,101.292"/>
</g>
<g id="Beard_White">
	<path fill="#A7A9AC" d="M69.266,130.244c1.392,5.113,2.551,6.547,4.872,11.506s8.529,17.244,10.362,19.914s3,2.287,3,2.287
		l4.275-0.825c0,0-1.317-2.459-3.026-6.959s-3.416-8.917-6.167-15.291c-2.75-6.374-3.283-9.563-3.771-10.745
		c-0.812-1.818-2.491-3.853-4.125-3.256c-1.096,0.466-1.902,1.332-3.257,0.938C69.931,127.21,68.978,127.5,69.266,130.244z"/>
	<path fill="#A7A9AC" d="M88.072,125.625c0,0,0.709,3.156,1.865,6.656s3.984,11.463,4.938,13.841s4.219,12.159,5.498,13.716
		c0.533,0.256,0.84-0.14,1.98-0.654c3.396-0.59,3.021-0.34,4.376-1.567c-0.475-2.538-0.604-2.772-1.354-5.116
		s-3.215-14.749-4.121-18.375s-2.853-11.413-2.853-11.413s-0.812-2.819-2.339-2.087c-0.973,0.355-2.379,0.164-3.438,0.438
		s-2.311,1.537-3.375,1.562C88.023,122.735,88.072,125.625,88.072,125.625"/>
</g>
<g id="Beard_White_2" display="none">
	<path display="inline" fill="#A7A9AC" d="M345.029,602.165c2.007,25.263,24.316,75.618,36.249,101.121
		c11.936,25.503,43.866,88.685,53.294,102.416c9.425,13.729,15.428,11.76,15.428,11.76l21.987-4.242c0,0-6.773-12.647-15.562-35.789
		c-8.789-23.145-17.566-45.858-31.714-78.639c-14.147-32.783-28.828-87.797-31.339-93.873c-0.8,3.223-3.691,7.828-12.094,10.898
		c-5.637,2.396-16.453,2.49-23.42,0.463C350.145,613.181,348.428,610.497,345.029,602.165z"/>
	<path display="inline" fill="#A7A9AC" d="M441.683,588.902c0,0,14.906,47.687,20.854,65.687s20.49,58.951,25.392,71.183
		c4.901,12.229,21.697,62.531,28.277,70.538c2.742,1.315,4.318-0.718,10.184-3.366c17.47-3.032,15.539-1.746,22.506-8.06
		c-2.44-13.055-3.108-14.259-6.967-26.312c-3.855-12.056-16.532-75.853-21.193-94.5s-23.077-92.332-23.077-92.332
		s0.949,3.797-6.902,7.564c-5.001,1.828-18.615-0.17-24.062,1.236c-5.443,1.406-8.657,8.637-14.133,8.769
		C446.253,589.878,441.683,588.902,441.683,588.902"/>
</g>
<g id="Glasses">
	<path fill="#6C301E" d="M100.623,61.875c0.018,0.96,0.493,2.831,1.034,3.597c0.552,0.781,1.661,1.309,2.56,1.809
		c1.941,1.082,4.023,1.643,5.876,2.844c0.909,0.59,1.856,1.301,3.003,1.626c1.145,0.325,2.076,0.722,3.053,1.344
		c1.863,1.187,3.605,2.403,5.443,3.571c0.984,0.626,2.193,1.353,3.146,1.772c-0.23-0.753-0.689-1.479-0.871-2.159
		c-0.144-0.535,0.099-1.432-0.141-1.916c-0.322-0.65-1.822-1.279-2.451-1.56c-2.104-0.938-3.573-2.547-5.773-3.493
		c-2.119-0.91-4.116-1.763-6.16-2.91c-2.125-1.193-4.113-2.111-6.191-3.433c-0.697-0.443-1.668-1.263-2.512-1.322
		c0.048,0.311-0.226,0.438-0.266,0.605"/>
	<path opacity="0.2" fill="#9F2214" d="M72.998,72.625c1.022,1.837,2.69,3.372,4.22,4.684c0.781,0.671,1.536,1.345,2.384,1.743
		c0.987,0.466,2.112,0.447,3.369,0.448c2.342,0.003,4.045-1.327,6.128-2.065c2.04-0.725,4.483-1.039,6.278-1.93
		c0.955-0.475,1.549-1.215,2.424-1.73c0.945-0.557,2.051-1.021,2.764-1.93c1.419-1.809,0.352-4.455-0.566-6.224
		c-1.25-2.408-2.452-3.254-5.006-4.162c-1.409-0.501-1.989-0.26-3.15,0.381c-1.114,0.614-2.195,0.583-3.378,1.035
		c-0.732,0.28-1.446,0.876-2.122,1.188c-0.805,0.371-1.607,0.337-2.435,0.598c-0.974,0.308-1.69,1.103-2.631,1.442
		c-0.779,0.281-1.802,0.24-2.625,0.459c-3.321,0.881-5.206,2.795-5.903,6.188"/>
	<path fill="#6E2405" d="M72.248,72c-0.244-1.266,1.022-1.978,1.575-2.868c0.668-1.076,0.75-1.299,1.959-1.977
		c2.115-1.185,4.123-2.207,6.435-2.939c1.205-0.381,2.036-0.85,3.291-1.088c1.065-0.202,1.986-0.733,2.984-1.162
		c1.908-0.819,4.961-1.504,7.006-1.094c0.826,0.165,1.422,0.352,2.334,0.395c0.09,0.457-0.225,1.051-0.611,1.304
		c-0.676,0.444-0.569,0.094-1.213-0.076c-1.143-0.303-2.053-0.25-3.159-0.144c-1.394,0.134-2.077,0.247-3.319,0.862
		c-1.109,0.549-2.137,0.483-3.34,0.757c-1.201,0.273-1.876,0.979-2.948,1.439c-0.983,0.422-2.005,0.768-2.987,1.214
		c-1.87,0.848-4.558,1.071-5.853,2.934c-0.482,0.693-1.02,3.111-2.01,3.178c-0.024-0.232-0.047-0.496-0.019-0.733"/>
	<path fill="#6E2405" d="M64.487,75.706c0.331-1.439,1.855-2.587,3.264-3.119c0.611-0.23,4.536-1.01,4.975-0.562
		c0.732,0.749-0.746,1.135-1.199,1.225c-0.992,0.196-1.379,0.347-2.281,0.719c-1.374,0.566-3.741,0.874-4.123,2.552
		c-0.136-0.136-0.869,0.216-0.936,0c-0.094-0.058-0.596-0.18-0.227-0.248c-0.035-0.174,0.617-0.484,0.538-0.647"/>
	<path fill="#BE1E2D" d="M97.623,61.75c0.625,0.873,0.018,3.077,0.866,3.638c0.431,0.284,1.397-0.215,1.878-0.144
		c0.562,0.083,1.256,0.584,1.605,0.999c0.149-0.68-0.411-1.399-0.593-2c-0.196-0.646-0.175-1.35-0.382-1.989
		c-0.469-1.448-1.803-1.442-3.359-1.36c-0.018,0.264-0.152,0.494-0.141,0.731"/>
	<path fill="#6E2405" d="M41.123,84.5c0.021-1.243,4.093-3.206,5.097-3.878c1.727-1.155,3.566-2.609,5.372-3.535
		c1.96-1.004,4.087-1.814,6.288-1.837c1.484-0.016,5.842-0.837,6.139,1.271c-2.019-0.117-4.544-0.117-6.648-0.02
		c-1.875,0.086-3.91,1.125-5.395,2.094c-1.764,1.15-3.816,2.164-5.63,3.162c-1.599,0.878-3.89,2.059-5.122,3.486
		c-0.414-0.228-0.627-0.609-0.588-1.071c0.34-0.075,0.646,0.021,0.862,0.203"/>
	<path opacity="0.2" fill="#9F2214" d="M40.873,85.25c0.013,3.905,3.437,9.728,8.003,8.999c1.035-0.165,1.961-0.812,2.865-1.273
		c1.066-0.544,2.27-0.777,3.375-1.344c2.085-1.07,4.486-2.069,6.357-3.41c1.594-1.141,3.46-2.743,4.178-4.627
		c0.949-2.495,0.115-4.209-1.439-5.945c-1.653-1.846-3.616-2.62-6.221-2.025c-1.951,0.447-3.924,1.414-5.688,2.289
		c-2.144,1.063-4.459,1.73-6.557,2.965c-1.626,0.958-4.987,2.097-4.999,4.372"/>
</g>
<g id="Head_hair">
	<path fill="#4A3222" d="M46.121,103.063c-2.088-4.046-5.25-8.607-6.01-13.09c-1.219-7.186-0.618-9.248-1.617-11.176
		c-0.111,1.084-0.234,1.033-0.857,1.928c0.033-2.049,1.433-8.257-0.088-9.719c-0.101,0.491-0.281,0.863-0.299,1.367
		c-0.072-1.986,0.317-3.815,0.249-5.799c0.071,0.691-0.741,2.078-0.849,2.67c-1.615-2.509-0.037-8.289-0.188-11.217
		c-0.935,0.431-1.589,1.569-1.726,2.784c-0.394-3.201,2.561-7.332,2.987-10.668c-0.407,0.367-0.87,0.682-1.216,1.05
		c1.551-2.041,5.867-4.82,4.898-7.905c-1.193,0.036-2.021,0.761-2.893,1.538c0.783-2.502,5.298-4.751,5.184-7.328
		c-0.577,0.589-1.473,0.699-2.373,0.445c1.842-0.767,3.446-2.427,4.375-4.188c0.721-1.367-0.65-1.995,1.307-2.511
		c1.839-0.484,2.439-0.091,3.084,1.288c-0.051-2.221,0.708-2.981,0.507-4.924c0.862,0.065,2.06,0.357,2.669,1.012
		c0.396-1.48,0.643-1.912,1.021-3.338c0.06,0.014,0.617,0.008,0.671-0.007c-0.04,1.191,0.484,2.305,1.615,1.752
		c0.604-0.296,0.959-3.062,1.621-3.764c-0.267,3.982,3.305,0.113,4.574-0.887c1.686-1.328,3.566-2.055,5.188-3.351
		c-0.111,0.758,0.113,1.72,0.131,2.448c2.366-0.671,3.951-2.294,6.046-3.286c2.325-1.101,4.786-1.994,7.123-3.177
		c-0.771,0.599-1.411,1.474-1.483,2.442c2.423,0.042,4.942-0.707,7.521-0.703c-3.035,1.009,1.928,2.019,2.3,3.206
		c2.376,0.745,5.999,0.63,7.948,1.545c-0.701,0.341-1.619,0.964-2.083,1.755c3.579,1.571,4.759,2.827,8.993,2.726
		c-3.23,0.652,0.363,1.51,1.131,1.948c1.162,0.664,2.128,1.809,3.352,2.631c2.977,2.002,5.818,3.309,8.315,5.938
		c2.023,2.13,3.96,4.035,5.8,6.507c1.73,2.325,3.253,5.319,5.45,7.46c-1.136-0.158-2.017-1.172-2.848-2.01
		c1.397,1.155,2.296,2.743,3.174,4.242c0.813,1.389,2.626,3.184,3.104,4.788c-0.58-0.307-1.297-0.359-1.902-0.917
		c1.083,4.043,5.139,6.847,5.667,11.418c0.106,0.923-0.194,2.141,0.044,3.024c0.264,0.976,1.34,2.158,1.816,3.231
		c0.586,1.32,0.898,6.648-1.779,4.137c0.145,2.199,1.312,4.162,1.191,6.843c-1.244,0.019-4.379-3.665-4.917-4.965
		c-0.276,1.731,0.856,4.032-0.231,5.307c-1.281,1.499-2.488,0.776-2.831-1.091c0.286,0.87-0.751,2.318-1,3.545
		c-0.345,1.695,0.077,3.74-0.038,5.479c-1.348-3.048-1.936-5.998-1.755-9.304c0.066-1.221,0.503-2.398,0.13-3.568
		c-0.428-1.341-1.993-2.263-2.257-3.582c-0.094,0.695-0.431,1.107-0.636,1.717c-0.86-1.31-0.89-3.404-1.695-4.754
		c-0.738-1.237-1.746-2.412-2.662-3.514c-2.02-2.431-5.524-4.887-6.855-7.599c0.295,0.451,0.649,0.607,1.055,0.976
		c0.087-2.999-5.176-6.249-7.303-8.189c0.182,1.36,0.426,2.392,1.429,3.361c-0.677-2.761-4.306-5.129-5.644-7.749
		c-0.996-1.95-2.869-3.822-3.305-6.042c-0.969,1.514-0.303,4.156-0.551,5.88c-3.164-3.62-2.368-8.743-6.938-11.541
		c0.667,1.828,0.793,3.896,1.526,5.666c-1.703-2.2-3.855-4.625-5.763-6.45c-0.312,1.895,1.008,4.229,2.565,5.199
		c-3.324,1.263-6.375-4.731-8.71-6.198c0.053,2.819,2.456,6.149,3.448,8.611c-0.256-0.521-0.94-1.046-1.271-1.472
		c-0.902,2.938-2.467,0.194-3.33-0.933c0.402,0.958,0.885,2.555,0.819,4.055c-0.743-2.707-2.488-6.97-4.761-8.74
		c0.031,2.021,0.014,4.044,0.012,6.066c0.066-3.783-3.622-10.8-4.493-3.637c-0.808-1.44-2.023-3.212-2.006-4.93
		c0,2.079,0.892,7.65-0.55,8.98c-0.488-0.481-2.465-4.065-2.87-4.135c-1.634-0.28-1.347,2.021-1.58,3.316
		c-0.574,3.177-1.187,6.273-2.167,9.38c-0.827-0.692-0.867-2.03-1.341-3.024c-0.741,0.84-1.687-0.32-2.298-1.08
		c-1.088,1.351-1,3.337-1.225,4.998c-1.767-1.475-1.184-4.966-1.818-6.983c-0.202-0.089-0.403-0.091-0.604-0.007
		c-1.373,2.737-2.523,4.421-2.548,7.536c-0.021,2.678-1.046,4.696-1.249,7.312c0.293-2.846-2.203-4.092-1.751-1.033
		c-0.001-3.282,0.229-6.47,0.256-9.759c-0.479,1.626-1.442,3.091-1.817,4.682c-0.375,1.593-0.047,3.287-0.188,4.937
		c-0.16,1.869-1.083,2.917-1.506,4.538c-0.484,1.858,0.081,4.302-0.038,6.235c-1.566-0.527-1.776-2.402-1.956-3.893
		c0.544,2.186,0.875,3.914,1.079,5.415c0.262,1.929-0.576,1.482,0.238,2.927c1.34,2.379,0.683,6.39,0.683,9.096
		c0,2.926-0.065,4.592,0.737,8.044c0.516,3.216-0.24,5.412-0.079,8.443"/>
</g>
</svg>
